<?xml version="1.0" encoding="utf-8"?>
<!-- Generator: Adobe Illustrator 23.0.1, SVG Export Plug-In . SVG Version: 6.00 Build 0)  -->
<svg version="1.1" xmlns="http://www.w3.org/2000/svg" xmlns:xlink="http://www.w3.org/1999/xlink" x="0px" y="0px"
	 viewBox="0 0 508.4 508.4" style="enable-background:new 0 0 508.4 508.4;" xml:space="preserve">
<style type="text/css">
	.st0{fill:#222222;}
	.st1{fill:#8A84B2;}
	.st2{fill:#E0B6A2;}
	.st3{display:none;fill:#E9C5B4;}
	.st4{fill:#E9C5B4;}
	.st5{fill:#381B10;}
	.st6{fill:none;stroke:#381B10;stroke-miterlimit:10;}
	.st7{fill:#391B12;}
	.st8{fill:#4A281C;}
	.st9{fill:#040006;}
	.st10{fill:#27140E;}
	.st11{fill:#1B0F0E;}
	.st12{fill:#9D9494;}
	.st13{fill:#C9A292;}
	.st14{fill:#D0A291;}
	.st15{fill:none;stroke:#C9A292;stroke-linecap:round;stroke-miterlimit:10;}
	.st16{fill:#181718;}
	.st17{fill:#070308;}
	.st18{fill:#FFFFFF;}
	.st19{fill:#151415;}
	.st20{fill:#55352B;}
	.st21{fill:#D0A797;}
	.st22{fill:#FFFFFF;stroke:#222222;stroke-width:0.5;stroke-miterlimit:10;}
	.st23{fill:#D3AA9B;}
	.st24{fill:#F3D761;}
	.st25{fill:#C02B4F;}
	.st26{fill:#C34369;}
	.st27{fill:#2E373B;}
	.st28{fill:#15191B;}
	.st29{fill:#F2EFE9;}
	.st30{fill:#DC9C7D;}
	.st31{fill:#E3B296;}
	.st32{fill:none;stroke:#DC9C7D;stroke-width:3;stroke-linecap:round;stroke-miterlimit:10;}
	.st33{fill:#ECC763;}
	.st34{fill:#D8B2A3;}
	.st35{fill:#C89B8E;}
	.st36{fill:none;}
	.st37{fill:#27100D;}
	.st38{fill:none;stroke:#D3AA9B;stroke-width:2;stroke-linecap:round;stroke-miterlimit:10;}
</style>
<g id="Capa_2">
</g>
<g id="Capa_1">
	<circle class="st33" cx="254.2" cy="254.2" r="254.2"/>
	<g>
		<path class="st4" d="M364.4,237.7c-0.7-0.1-1.4-0.2-2.1-0.2c1,5,1,10.7,0,16.6c-1,5.1-2.7,9.9-4.9,13.9c0.5,0.1,0.9,0.2,1.4,0.3
			c8.4,1.6,16.5-4,18.1-12.5C378.4,247.4,372.8,239.3,364.4,237.7z"/>
		<path class="st23" d="M364.4,245.9c-0.4-0.1-0.9-0.1-1.3-0.1c0,2.7-0.3,5.6-0.8,8.4c-0.6,3-1.4,5.9-2.4,8.6
			c0.4,0.2,0.9,0.3,1.3,0.4c4.8,0.9,9.3-2.3,10.2-7C372.3,251.4,369.1,246.8,364.4,245.9z"/>
	</g>
	<g>
		<path class="st34" d="M160.5,237.7c0.7-0.1,1.4-0.2,2.1-0.2c-1,5-1,10.7,0,16.6c1,5.1,2.7,9.9,4.9,13.9c-0.5,0.1-0.9,0.2-1.4,0.3
			c-8.4,1.6-16.5-4-18.1-12.5C146.5,247.4,152.1,239.3,160.5,237.7z"/>
		<path class="st35" d="M160.5,245.9c0.4-0.1,0.9-0.1,1.3-0.1c0,2.7,0.3,5.6,0.8,8.4c0.6,3,1.4,5.9,2.4,8.6
			c-0.4,0.2-0.9,0.3-1.3,0.4c-4.8,0.9-9.3-2.3-10.2-7C152.6,251.4,155.8,246.8,160.5,245.9z"/>
	</g>
	<path class="st36" d="M99.5,455.8c20-24.1,47.4-39.1,77.6-39.1h38.7l2.4-45.9c-11.8-6.2-23.1-13-23.9-14.6
		c-2.3-1.3-14.5-11.6-16.2-17.4c0.6,1.8-7.8-10.7-6.9-22.1c-0.7-2.5-4.7-29.3-7.8-50.7c-0.5-2.9-0.9-5.9-1.4-8.9c0,0,0,0,0,0
		c0,0,0,0,0,0c-2.9-18.9-5.3-38.5-6.3-54.6c-2.8,4.6-3.7,10.4-2.2,15.6c-8.7-6.7-10.8-18.8-11.9-29.8c-2.9-28.3-1.4-55.6,15.7-71.4
		c-4.7,0.4-9.5,5.8-13.3,12.9c5.1-32.6,25.4-48.7,52.7-59.2c-11.1,0.8-21.4,6.3-30.6,12.8c8.1-19.8,45.1-31.8,57.7-30.7
		c12.6,1.1,48.5-3.1,62.6-1.8c18.2,1.1,33.1,8.7,49.7,14.4c16.6,5.7,31.6,17.1,39.4,32.7c6.6,13.1,7.8,28.2,7.9,42.9
		c0.1,12.5-3,33.6-7.3,53.8c-0.9,0.9-1.7,1.6-2,1.1c-1-1.4-3.1-2.3-4.7-1.4c-0.4,17.1-3,39.9-6.3,61.8c0,0,0,0,0,0.1c0,0,0,0,0,0
		c0,0.2-0.1,0.4-0.1,0.6c-1.7,12.6-7.6,56.5-10.2,59.9c0.9,11.1-7.5,23.1-7.5,22.2c0,0,0,0,0,0c-1.9,5.9-13.8,16-16.1,17.3
		c-0.8,1.5-11.2,7.9-22.5,13.9l2.4,46.7h38.7c26.8,0,51.4,11.8,70.6,31.3c54.9-46.6,89.8-116.2,89.8-193.9
		C508.4,113.8,394.6,0,254.2,0S0,113.8,0,254.2C0,336.3,39,409.4,99.5,455.8z"/>
	<path class="st0" d="M347.9,416.7h-38.7l0.3,5.9l-20.9,3.9c-17.2,3.3-34.9,3.3-52.2,0c0,0.1,0,0.1,0,0.2l-20.9-3.9l0-0.2l-0.2,0
		l0.3-5.9h-38.7c-30.2,0-57.6,15-77.6,39.1c42.9,32.9,96.5,52.5,154.7,52.5c62.7,0,120-22.7,164.3-60.3
		C399.3,428.5,374.7,416.7,347.9,416.7z"/>
	<path class="st2" d="M278.9,382.5c-4.2,1.6-10.7,2.1-17.1,1.9c-6.5,0.1-12.9-0.4-17.1-1.9c-2.5-0.6-4.1-1.3-4.6-1.9
		c-0.8-0.3-1.7-0.6-2.7-0.9c0,18.3-0.2,39.7-0.9,46.9c17.2,3.2,34.9,3.2,52.2,0l20.9-3.9l-0.3-5.9l-2.4-46.7
		c-8.6,4.5-17.6,8.8-23.3,10.6C283.1,381.3,281.4,382,278.9,382.5z"/>
	<path class="st2" d="M215.6,422.7l2.7-51.8c0,0-0.1-0.1-0.1-0.1l-2.4,45.9l-0.3,5.9L215.6,422.7z"/>
	<path class="st21" d="M237.4,379.7c-5.3-1.9-12.3-5.3-19.1-8.8l-2.7,51.8l0,0.2l20.9,3.9c0-0.1,0-0.1,0-0.2
		C237.1,419.4,237.3,398,237.4,379.7z"/>
	<path class="st4" d="M345.5,338.7c0,0.1,0,0.1-0.1,0.2c0,0,0,0,0,0C345.5,338.8,345.5,338.8,345.5,338.7z"/>
	<path class="st4" d="M282.3,230.6c-2.2,1-4.2,2.2-5.6,3.6c-2.1,2-3.1,4.2-3.1,6.8c1,1.2,1.7,2.6,1.7,4.1c0,0.8-0.5,1.4-1.2,1.8
		c0.5,3.8,1.7,9.2,4.3,14.8c6.2,13.8,17.1,22.4,32.4,25.6c9.9,2,18,0.7,24.1-4c10.7-8.4,12.9-25.6,12.6-33.5
		c-0.2-5-2.5-21.1-22.9-23.7l7.6,9.6C314.3,227.2,297.3,227.5,282.3,230.6z M307.1,267c-12.1-0.1-21.9-10.7-21.7-23.5
		c0-1.1,9.9-4.6,22-4.4c0.2,0,0.4,0,0.6,0c0.1,0,0.1,0,0.2,0c0.1,0,0.2,0,0.3,0c0.6,0,1.2,0,1.8,0.1c0.6,0,1.3,0,1.9,0.1
		c1.7,0.1,3.3,0.2,4.9,0.4c0.5,0.1,1,0.1,1.5,0.2c0,0,0,0.1,0.1,0.1c6.4,1,10.8,2.7,10.7,4C329.2,256.8,319.2,267.1,307.1,267z"/>
	<path class="st4" d="M363.2,256.7c0-0.2,0.1-0.4,0.1-0.6c0,0,0,0,0,0C363.3,256.3,363.2,256.5,363.2,256.7z"/>
	<path class="st4" d="M192.8,283.1c6.1,4.8,14.2,6.1,24.1,4c15.3-3.2,26.1-11.8,32.4-25.6c2.5-5.6,3.7-11,4.3-14.8
		c-0.7-0.3-1.2-1-1.2-1.8c0-1.5,0.6-2.9,1.7-4.1c0.1-2.5-0.9-4.8-3.1-6.8c-1.5-1.4-3.4-2.5-5.6-3.6c-15.1-3-32.1-3.4-50,5l7.6-9.6
		c-20.2,2.7-22.6,18.6-22.8,23.7C179.8,257.5,182,274.7,192.8,283.1z M220.9,239c0.2,0,0.4,0,0.6,0c0.1,0,0.1,0,0.2,0
		c0.1,0,0.2,0,0.3,0c0.6,0,1.2,0,1.8,0.1c0.6,0,1.3,0,1.9,0.1c1.7,0.1,3.3,0.2,4.9,0.4c0.5,0.1,1,0.1,1.5,0.2c0,0,0,0.1,0.1,0.1
		c6.4,1,10.8,2.7,10.7,4c-0.1,12.8-10.1,23.2-22.2,23c-12.1-0.1-21.9-10.7-21.7-23.5C198.9,242.4,208.7,238.9,220.9,239z"/>
	<path class="st4" d="M162,257c0.5,3,0.9,6,1.4,8.9c-0.5-3.3-0.9-6.5-1.4-9.5C162,256.8,162,257,162,257z"/>
	<path class="st4" d="M159.5,238.8L159.5,238.8c-1.8-14.5-3.4-27.6-3.3-37.2c-0.1,0.2-0.3,0.4-0.4,0.6c0.9,16.1,3.4,35.7,6.3,54.6
		c-0.4-2.9-0.8-5.7-1.1-8.5C160,242.6,159.5,238.8,159.5,238.8z"/>
	<path class="st4" d="M335,224.4c2.9-7.9,3.4-14.6,2.4-21.2c-2.9-1.7-6.1-3.2-9.8-4.2v-0.8c-2.3,2-5.2,3.4-8.9,4.2
		c5.1-8,6-19.1,0.2-26.6c-5.8-7.5-18.9-8.8-24.5-1.1c-3.5,4.7-2.3,11.7-2.3,11.7s-0.2,3.7,2.8,7.8c-8.5-7.3-10-10.8-11.7-13.4
		c0,0-2.8-7.3-6.9-8.4c-7.3-2.1-14.3,5.7-14.4,13.3c-0.1,7.6,4.4,14.3,8.7,20.5c-11.4-8.1-16.4-24.1-11.6-37.2
		c-13.8,1-47.7,31.7-55.4,34.4c-4.8,1.7-8.6,0.5-11.5-2.5c-6.4,2.8-11.5,7.1-15.5,12.1c0,0,0.3,12.6,1.6,28.8
		c0.9-2.8,2.3-5.9,4.6-8.7c5-6.2,12.5-9.7,22.4-10.3c0.1,0,0.1,0,0.2,0l0.7-0.8h13.7c0.3-0.1,0.6-0.2,0.9-0.2l4,0.2h22.8l0.6,1.2
		l12.1,0.6c2.5,0.1,5,0.1,7.4,0l11.9-0.6l0.6-1.2h22.7l3.9-0.2c0.3,0,0.6,0.1,0.9,0.2h13.8l0.7,0.8c0,0,0,0,0.1,0
		c9.9,0.7,17.5,4.1,22.4,10.3c2.7,3.4,4.2,7,5,10.1h2.8c0.9,0,1.5,0.7,1.7,1.5v6.1c0,0.8-0.7,1.5-1.6,1.5h-1.8
		c-0.2,9.2-3.2,25-13.8,33.2c-4.8,3.8-10.7,5.6-17.5,5.6c-2.9,0-6-0.4-9.3-1c-18.7-3.9-28.4-15.1-33.4-24.7l5.9,36
		c0.1,0.7-0.4,1.4-1.1,1.5l-13.2,2.3l6.8-3.3c2-1,3.2-3.1,3-5.3l-3.4-35.9c-3-7.3-3.9-13.8-4.1-17c-1-1.4-3.5-2.5-6.7-2.5
		c-3.3,0-5.7,1.2-6.7,2.5c-0.3,3.6-1.3,10.9-4.9,18.9c-4.6,10.2-14.3,23.1-34.7,27.4c-3.2,0.7-6.3,1-9.3,1c-6.8,0-12.7-1.9-17.5-5.6
		c-3.9-3.1-6.8-7.2-8.9-11.6c1.8,11.7,4.2,22.3,7.4,29.1c4.2,8.9,9.5,17.1,14.3,23.7c7.1,7.1,14.4,12.2,20.4,11.5
		c-0.6,3.1-0.3,6.3,0.6,9.4l9.6,5.3c0,0,9.5,5.3,16.8,9.8c4.1,0.2,8.4,0.5,11,0.9c34.5,4.5,56.9-18.1,42.9-28.8
		c20.9-1.4,43.7-45.3,43.7-45.3l10.9-55c-2.5-8.3-6.7-17.4-13.5-24.5C343.7,215.6,340,220.8,335,224.4z M264.5,320.3l0.6-3
		c0.1-0.6,0.6-1.1,1.2-1.2c3.3-0.5,13.9-1.3,24.5,8.8c3.5,3.3,6.1,7.3,6.6,11c0.4,3.6,3.8,3.8,4.9,3.9c-5.1,2.5-14-7.1-16.3-8.1
		c-9-7.6-23-5.5-19.9-8.6C265.2,322.4,264.2,321.5,264.5,320.3z M265.5,344.1l2.7-1c1.5-0.5,3.1,0.2,3.6,1.7l0.3,0.7l-5.8,2.1
		c-1.2,0.4-2.4,0.4-3.6,0l-5.8-2.1l0.3-0.7c0.5-1.5,2.2-2.2,3.6-1.7l2.7,1C264.1,344.3,264.8,344.3,265.5,344.1z M226.5,339.8
		c1.1,0,4.5-0.3,4.9-3.9c0.4-3.7,3-7.8,6.6-11c10.6-10.1,21.3-9.4,24.5-8.8c0.6,0.1,1.1,0.6,1.2,1.2l0.6,3c0.3,1.3-0.7,2.1-1.7,2.9
		c3.1,3.1-10.9,1-19.9,8.6C240.5,332.7,231.6,342.3,226.5,339.8z"/>
	<path class="st4" d="M368.7,195c-0.1,0.1-0.2,0.3-0.3,0.4c1.6,12.5-2,36.1-5.1,60.7c3.2-21.9,5.9-44.7,6.3-61.8
		C369.3,194.5,369,194.7,368.7,195z"/>
	<path class="st4" d="M253.2,232.1c2.2,2,3.4,4.2,3.9,6.7c1.9-0.9,4.2-1.5,6.7-1.5c2.5,0,4.9,0.5,6.7,1.5c0.4-2.5,1.8-4.7,3.9-6.7
		c0.3-0.3,0.7-0.6,1-0.9l2.5-5l-10.1,0.5c-1.3,0.1-2.6,0.1-3.9,0.1c-1.3,0-2.6-0.1-3.9-0.1l-10.4-0.5l2.5,5
		C252.5,231.4,252.8,231.7,253.2,232.1z"/>
	<path class="st23" d="M181.7,273.8c-3.5-7.5-4.7-15.8-4.9-21.6h-1.7c-0.9,0-1.6-0.7-1.6-1.5v-6.1c0-0.8,0.7-1.5,1.6-1.5h2.7
		c0.1-0.5,0.3-0.9,0.4-1.4c-1.2-16.1-1.6-28.7-1.6-28.8c-6,7.6-9.6,16.7-11.7,24.7l10.2,51.6c0,0,13.7,22.9,28.2,37.3
		c-4.8-6.6-10-14.8-14.3-23.7C185.9,296.2,183.5,285.5,181.7,273.8z"/>
	<path class="st23" d="M234,352.8l-9.6-5.3c2.7,9.2,10.8,16.8,16.7,15.1c0.7-0.2,5.1-0.2,9.8,0.1C243.5,358.1,234,352.8,234,352.8z"
		/>
	<path class="st7" d="M337.5,203.2c-0.8-5.2-2.4-10.2-4.6-15.6c-0.6,4.7-2.4,8.2-5.2,10.7v0.8C331.3,200,334.5,201.4,337.5,203.2z"
		/>
	<path class="st7" d="M369.5,195.4c0,0,0-1.5,0-1.5c-1.4-0.1-3.9,1.5-5.2,1.7c-4.1,0.8-7,4-9.7,7c-0.7,0.8-1,1.8-0.9,2.7
		c-1.8-3.4-4-6.6-6.5-9.6c0.6,4.7,0.1,9.6-1.5,14.1c6.8,7.1,11,16.2,13.5,24.5l0.4-1.9l4,21c0,0-0.1,1-0.4,2.7c0,0,0,0,0,0
		c0,0,0,0,0,0c0,0,0,0,0-0.1C366.4,231.5,371.1,207.9,369.5,195.4z"/>
	<path class="st7" d="M192.1,200.9c-2.4-2.4-4.2-6-5.2-10.1c-5.4,4.9-9.4,7.8-6.8,15c-5-4.5-5.6-7.4-8.4-12.2
		c-4.8,4.9-7.1,12.2-6.1,19l-7.4-13.5c-0.8,0.8-1.8,2.3-2.5,3.2c-0.1,9.6,1.9,23,3.8,37.4l5.1-3.9l0.4,2c2.1-8,5.6-17.2,11.7-24.7
		C180.6,208,185.7,203.7,192.1,200.9z"/>
	<path class="st37" d="M192.1,200.9c-2.4-2.4-4.2-6-5.2-10.1c-5.4,4.9-9.4,7.8-6.8,15c-5-4.5-5.6-7.4-8.4-12.2
		c-4.8,4.9-7.1,12.2-6.1,19l-7.4-13.5c-0.8,0.8-1.8,2.3-2.5,3.2c-0.1,9.6,1.9,23,3.8,37.4l5.1-3.9l0.4,2c2.1-8,5.6-17.2,11.7-24.7
		C180.6,208,185.7,203.7,192.1,200.9z"/>
	<path class="st7" d="M160.9,248.4c0.4,2.8,0.8,5.7,1.1,8.5c0,0,0,0,0,0c0,0,0,0,0,0c0,0,0-0.2,0-0.6
		C161.6,253.5,161.2,250.8,160.9,248.4z"/>
	<g>
		<path class="st11" d="M158.2,199.1l7.4,13.5c-1.1-6.8,1.2-14.1,6.1-19c2.8,4.8,3.3,7.7,8.4,12.2c-2.6-7.1,1.4-10.1,6.8-15
			c1,4.1,2.8,7.7,5.2,10.1c2.9,2.9,6.8,4.2,11.5,2.5c7.7-2.7,41.7-33.4,55.4-34.4c-4.8,13.1,0.2,29.1,11.6,37.2
			c-4.3-6.2-8.8-13-8.7-20.5c0.1-7.6,7.1-15.4,14.4-13.3c4,1.2,6.9,8.4,6.9,8.4c1.7,2.6,3.1,6.1,11.7,13.4c-3-4.1-2.8-7.8-2.8-7.8
			s-1.1-6.9,2.3-11.7c5.6-7.6,18.7-6.4,24.5,1.1c5.8,7.5,4.9,18.6-0.2,26.6c3.7-0.8,6.7-2.2,8.9-4.2c2.8-2.5,4.6-6,5.2-10.7
			c2.1,5.4,3.8,10.4,4.6,15.6c1,6.6,0.5,13.4-2.4,21.2c5-3.6,8.7-8.8,10.7-14.6c1.6-4.5,2.2-9.4,1.5-14.1c2.5,2.9,4.6,6.2,6.5,9.6
			c-0.1-0.9,0.2-1.8,0.9-2.7c2.6-3,5.6-6.2,9.7-7c1.3-0.3,2.7-0.3,4-0.1c0,0,0,0,0-0.1c0.1-0.1,0.2-0.3,0.3-0.4
			c0.3-0.3,0.5-0.5,0.9-0.7c1.6-0.9,3.7,0,4.7,1.4c0.3,0.4,1.1-0.2,2-1.1c4.3-20.1,7.4-41.3,7.3-53.8c-0.1-14.7-1.3-29.8-7.9-42.9
			c-7.9-15.7-22.9-27-39.4-32.7c-16.6-5.7-31.5-13.3-49.7-14.4c-14-1.3-50,2.9-62.6,1.8c-12.6-1.1-49.6,11-57.7,30.7
			c9.2-6.5,19.4-12,30.6-12.8c-27.3,10.4-47.6,26.6-52.7,59.2c3.8-7.1,8.6-12.6,13.3-12.9c-17.1,15.8-18.7,43.2-15.7,71.4
			c1.1,11,3.2,23,11.9,29.8c-1.5-5.2-0.7-11,2.2-15.6c0.1-0.2,0.3-0.4,0.4-0.6C156.8,200.7,157.4,199.9,158.2,199.1z"/>
	</g>
	<path class="st7" d="M237.4,379.7c1,0.4,1.9,0.7,2.7,0.9c0.4,0.7,2.1,1.3,4.6,1.9c4.2,1.6,10.7,2.1,17.1,1.9
		c6.5,0.1,12.9-0.4,17.1-1.9c2.5-0.6,4.1-1.3,4.6-1.9c5.7-1.7,14.8-6,23.3-10.6c11.3-6,21.8-12.4,22.5-13.9
		c2.3-1.3,14.2-11.4,16.1-17.3c0-0.1,0-0.1,0.1-0.2c0,0.1,0,0.1,0,0.1c0,0.9,8.4-11.1,7.5-22.2c2.6-3.4,8.6-47.4,10.2-59.9
		c0-0.2,0.1-0.4,0.1-0.6c0.2-1.7,0.4-2.7,0.4-2.7l-4-21l-0.4,1.9l-10.9,55c0,0-22.8,43.9-43.7,45.3c14,10.7-8.4,33.4-42.9,28.8
		c-2.6-0.4-6.9-0.7-11-0.9c-4.7-0.2-9.1-0.2-9.8-0.1c-5.9,1.8-14-5.9-16.7-15.1c-0.9-3.1-1.2-6.3-0.6-9.4
		c-5.9,0.7-13.2-4.3-20.4-11.5c-14.5-14.4-28.2-37.3-28.2-37.3L165,237.7l-0.4-2l-5,3l-0.1,0.1c0,0,0.5,3.7,1.4,9.6
		c0.3,2.4,0.7,5.1,1.2,8c0.4,3,0.9,6.2,1.4,9.5c3.1,21.5,7.1,48.3,7.8,50.7c-0.9,11.5,7.5,24,6.9,22.1c1.7,5.9,13.8,16.1,16.2,17.4
		c0.8,1.6,12,8.4,23.9,14.6c0,0,0.1,0.1,0.1,0.1C225.1,374.4,232.1,377.8,237.4,379.7z"/>
	<path class="st13" d="M260.8,343.1c-1.5-0.5-3.1,0.2-3.6,1.7l-0.3,0.7l5.8,2.1c1.2,0.4,2.4,0.4,3.6,0l5.8-2.1l-0.3-0.7
		c-0.5-1.5-2.2-2.2-3.6-1.7l-2.7,1c-0.7,0.2-1.4,0.2-2.1,0L260.8,343.1z"/>
	<path class="st7" d="M262.7,323.1c1-0.8,2-1.6,1.7-2.9l-0.6-3c-0.1-0.6-0.6-1.1-1.2-1.2c-3.3-0.5-13.9-1.3-24.5,8.8
		c-3.5,3.3-6.1,7.3-6.6,11c-0.4,3.6-3.8,3.8-4.9,3.9c5.1,2.5,14-7.1,16.3-8.1C251.8,324.2,265.8,326.2,262.7,323.1z"/>
	<path class="st7" d="M266.2,323.1c-3.1,3.1,10.9,1,19.9,8.6c2.3,1,11.2,10.6,16.3,8.1c-1.1,0-4.5-0.3-4.9-3.9
		c-0.4-3.7-3-7.8-6.6-11c-10.6-10.1-21.3-9.4-24.5-8.8c-0.6,0.1-1.1,0.6-1.2,1.2l-0.6,3C264.2,321.5,265.2,322.4,266.2,323.1z"/>
	<path class="st8" d="M249.6,226.1l-9.2-0.5c4.7,1.3,8.8,3.1,11.7,5.5L249.6,226.1z"/>
	<path class="st8" d="M245.3,230.6c-8-3.6-20.2-5.2-31.5-5.2c-2.8,0-5.5,0.1-8.2,0.3c-0.9,0.1-1.8,0.2-2.7,0.3l-7.6,9.6
		C213.2,227.2,230.2,227.5,245.3,230.6z"/>
	<path class="st8" d="M219.2,222.6c0.1-0.3,0.4-0.5,0.7-0.7h-13.7l-0.7,0.8C209.9,222.4,214.5,222.4,219.2,222.6z"/>
	<polygon class="st8" points="247.4,221.9 224.7,221.9 248,223.1 	"/>
	<path class="st8" d="M287.1,225.7l-9.2,0.5l-2.5,5C278.3,228.9,282.4,227,287.1,225.7z"/>
	<path class="st8" d="M332.2,235.5l-7.6-9.6c-0.8-0.1-1.7-0.2-2.5-0.3c-13.3-0.9-29.8,0.4-39.8,4.9
		C297.3,227.5,314.3,227.2,332.2,235.5z"/>
	<path class="st8" d="M308.2,222.6c4.7-0.2,9.4-0.2,13.8,0.2l-0.7-0.8h-13.8C307.8,222,308.1,222.3,308.2,222.6z"/>
	<polygon class="st8" points="280,221.9 279.5,223.1 302.8,221.9 	"/>
	<path class="st14" d="M274.6,260.7l3.4,35.9c0.2,2.2-1,4.3-3,5.3l-6.8,3.3l13.2-2.3c0.7-0.1,1.2-0.8,1.1-1.5l-5.9-36
		c-0.5-0.9-0.9-1.8-1.3-2.7C275.1,261.9,274.8,261.3,274.6,260.7z"/>
	<path class="st17" d="M175.1,243.2c-0.9,0-1.6,0.7-1.6,1.5v6.1c0,0.8,0.7,1.5,1.6,1.5h1.7c0.1,5.8,1.4,14.1,4.9,21.6
		c2.1,4.4,5,8.5,8.9,11.6c4.8,3.8,10.7,5.6,17.5,5.6c2.9,0,6-0.3,9.3-1c20.4-4.3,30.1-17.3,34.7-27.4c3.6-8,4.6-15.3,4.9-18.9
		c1-1.4,3.5-2.5,6.7-2.5c3.2,0,5.7,1.2,6.7,2.5c0.3,3.2,1.2,9.8,4.1,17c0.3,0.6,0.5,1.2,0.8,1.9c0.4,0.9,0.8,1.8,1.3,2.7
		c5,9.6,14.7,20.8,33.4,24.7c3.3,0.7,6.3,1,9.3,1c6.8,0,12.7-1.9,17.5-5.6c10.5-8.2,13.6-24,13.8-33.2h1.8c0.9,0,1.6-0.7,1.6-1.5
		v-6.1c-0.1-0.8-0.8-1.5-1.7-1.5h-2.8c-0.8-3.1-2.3-6.8-5-10.1c-5-6.2-12.5-9.7-22.4-10.3c0,0,0,0-0.1,0c-4.5-0.3-9.1-0.4-13.8-0.2
		c-0.2-0.3-0.4-0.5-0.7-0.7c-0.2-0.1-0.5-0.2-0.9-0.2l-3.9,0.2l-23.3,1.2l-11.9,0.6c-2.5,0.1-5,0.1-7.4,0l-12.1-0.6l-23.4-1.2
		l-4-0.2c-0.3,0-0.6,0.1-0.9,0.2c-0.3,0.2-0.5,0.4-0.7,0.7c-4.6-0.2-9.3-0.1-13.7,0.2c-0.1,0-0.1,0-0.2,0
		c-9.9,0.7-17.5,4.1-22.4,10.3c-2.3,2.9-3.8,5.9-4.6,8.7c-0.2,0.5-0.3,1-0.4,1.4H175.1z M322,225.7c0.9,0.1,1.7,0.2,2.5,0.3
		c20.4,2.6,22.7,18.6,22.9,23.7c0.3,7.9-1.9,25.2-12.6,33.5c-6.1,4.7-14.2,6.1-24.1,4c-15.3-3.2-26.2-11.8-32.4-25.6
		c-2.5-5.6-3.8-11-4.3-14.8c0.7-0.3,1.2-1,1.2-1.8c0-1.5-0.6-2.9-1.7-4.1c0-2.5,0.9-4.8,3.1-6.8c1.5-1.4,3.4-2.6,5.6-3.6
		C292.2,226,308.7,224.8,322,225.7z M249.6,226.1l10.4,0.5c1.3,0,2.6,0.1,3.9,0.1c1.3,0,2.6,0,3.9-0.1l10.1-0.5l9.2-0.5
		c-4.7,1.4-8.8,3.2-11.7,5.5c-0.4,0.3-0.7,0.6-1,0.9c-2.1,2-3.4,4.2-3.9,6.7c-1.8-1-4.2-1.5-6.7-1.5c-2.5,0-4.8,0.6-6.7,1.5
		c-0.4-2.4-1.7-4.7-3.9-6.7c-0.3-0.3-0.7-0.6-1.1-0.9c-2.9-2.3-7-4.2-11.7-5.5L249.6,226.1z M180.1,249.6c0.2-5,2.5-21,22.8-23.7
		c0.9-0.1,1.7-0.2,2.7-0.3c2.7-0.2,5.4-0.3,8.2-0.3c11.4,0,23.5,1.6,31.5,5.2c2.2,1,4.2,2.2,5.6,3.6c2.1,2,3.1,4.2,3.1,6.8
		c-1,1.2-1.7,2.6-1.7,4.1c0,0.8,0.5,1.4,1.2,1.8c-0.6,3.7-1.7,9.1-4.3,14.8c-6.2,13.8-17.1,22.4-32.4,25.6c-9.9,2.1-18,0.7-24.1-4
		C182,274.7,179.8,257.5,180.1,249.6z"/>
	<path class="st18" d="M221.9,239.1c0.6,0,1.2,0,1.8,0.1C223.1,239.1,222.5,239.1,221.9,239.1z"/>
	<path class="st18" d="M220.6,267c12.1,0.1,22.1-10.2,22.2-23c0-1.4-4.3-3-10.7-4c1.2,2.1,2,4.5,1.9,7.2c-0.1,7.3-5.7,13.1-12.5,13
		c-6.9-0.1-12.3-6-12.3-13.3c0-2.6,0.8-5,2-7c1.2-0.2,2.5-0.3,3.8-0.5c2-0.2,4.2-0.3,6.5-0.3c-0.2,0-0.4,0-0.6,0
		c-12.1-0.1-22,3.3-22,4.4C198.7,256.3,208.4,266.9,220.6,267z"/>
	<path class="st20" d="M231.2,241.9c0,0.6-0.2,1.2-0.5,1.7c0.4,1.1,0.6,2.3,0.5,3.5c-0.1,5.7-4.5,10.3-9.9,10.2
		c-5.4-0.1-9.7-4.7-9.6-10.4c0-3,1.3-5.7,3.2-7.5c-1.3,0.1-2.6,0.3-3.8,0.5c-1.2,2-2,4.4-2,7c-0.1,7.3,5.4,13.2,12.3,13.3
		c6.9,0.1,12.5-5.7,12.5-13c0-2.6-0.7-5.1-1.9-7.2c0,0,0-0.1-0.1-0.1c-0.5-0.1-1-0.1-1.5-0.2C230.9,240.2,231.2,241,231.2,241.9z"/>
	<path class="st19" d="M211.8,246.9c-0.1,5.7,4.3,10.4,9.6,10.4c5.4,0.1,9.8-4.5,9.9-10.2c0-1.2-0.2-2.4-0.5-3.5
		c-0.6,1.1-1.7,1.8-2.9,1.8c-1.9,0-3.3-1.6-3.3-3.6c0-1,0.4-2,1.1-2.6c-0.6,0-1.3,0-1.9-0.1c-0.6,0-1.2-0.1-1.8-0.1
		c-0.1,0-0.2,0-0.3,0c-0.1,0-0.1,0-0.2,0c-2.3,0-4.4,0.1-6.5,0.3C213.1,241.2,211.8,243.9,211.8,246.9z"/>
	<path class="st18" d="M224.5,241.8c0,2,1.5,3.6,3.3,3.6c1.3,0,2.4-0.7,2.9-1.8c0.3-0.5,0.5-1.1,0.5-1.7c0-0.8-0.3-1.6-0.7-2.2
		c-1.5-0.2-3.2-0.3-4.9-0.4C224.9,239.8,224.5,240.8,224.5,241.8z"/>
	<path class="st18" d="M308.5,239.1c0.6,0,1.2,0,1.8,0.1C309.6,239.1,309,239.1,308.5,239.1z"/>
	<path class="st18" d="M318.6,239.9c1.2,2.1,2,4.5,1.9,7.2c-0.1,7.3-5.7,13.1-12.5,13s-12.3-6-12.3-13.3c0-2.6,0.8-5,2-7
		c1.2-0.2,2.5-0.3,3.8-0.5c2-0.2,4.2-0.3,6.5-0.3c-0.2,0-0.4,0-0.6,0c-12.1-0.1-22,3.3-22,4.4c-0.1,12.8,9.6,23.4,21.7,23.5
		c12.1,0.1,22.1-10.2,22.2-23C329.3,242.6,325,240.9,318.6,239.9z"/>
	<path class="st20" d="M317.7,241.9c0,0.6-0.2,1.2-0.5,1.7c0.4,1.1,0.6,2.3,0.5,3.5c-0.1,5.7-4.5,10.3-9.9,10.2
		c-5.4-0.1-9.7-4.7-9.6-10.4c0-3,1.3-5.7,3.2-7.5c-1.3,0.1-2.6,0.3-3.8,0.5c-1.2,2-2,4.4-2,7c-0.1,7.3,5.4,13.2,12.3,13.3
		s12.5-5.7,12.5-13c0-2.6-0.7-5.1-1.9-7.2c0,0,0-0.1-0.1-0.1c-0.5-0.1-1-0.1-1.5-0.2C317.5,240.2,317.7,241,317.7,241.9z"/>
	<path class="st19" d="M298.3,246.9c-0.1,5.7,4.3,10.4,9.6,10.4c5.4,0.1,9.8-4.5,9.9-10.2c0-1.2-0.2-2.4-0.5-3.5
		c-0.6,1.1-1.7,1.8-2.9,1.8c-1.9,0-3.3-1.6-3.3-3.6c0-1,0.4-2,1.1-2.6c-0.6,0-1.3,0-1.9-0.1c-0.6,0-1.2-0.1-1.8-0.1
		c-0.1,0-0.2,0-0.3,0c-0.1,0-0.1,0-0.2,0c-2.3,0-4.4,0.1-6.5,0.3C299.6,241.2,298.4,243.9,298.3,246.9z"/>
	<path class="st18" d="M311,241.8c0,2,1.5,3.6,3.3,3.6c1.3,0,2.4-0.7,2.9-1.8c0.3-0.5,0.5-1.1,0.5-1.7c0-0.8-0.3-1.6-0.7-2.2
		c-1.5-0.2-3.2-0.3-4.9-0.4C311.4,239.8,311,240.8,311,241.8z"/>
	<path class="st17" d="M352.4,244.9l14.2-8.2c0.4-0.2,0.8,0.1,0.7,0.5l-0.3,3.6c0,0.3-0.2,0.6-0.4,0.8l-14.3,10.8L352.4,244.9z"/>
	<g>
		<g>
			<g>
				<path class="st12" d="M292.6,124.1c10.8,2.6,20.3,7.9,28.1,15.8c0.5,0.5,1.1,0,1-0.6c-1.5-10.3-8.1-18.9-17.7-23.1
					c-0.1,0.4-0.2,0.8-0.3,1.2c14.6,0.4,28.4,5.9,39.2,15.8c0.5,0.4,1.2,0,1-0.6c-3.6-13.9-13.4-25.1-26.7-30.5
					c-0.7-0.3-1.1,0.9-0.3,1.2c12.9,5.2,22.3,16.2,25.8,29.6c0.3-0.2,0.7-0.4,1-0.6c-11.1-10.1-25.1-15.7-40.1-16.1
					c-0.6,0-0.9,0.9-0.3,1.2c9.3,4.1,15.6,12.3,17.1,22.4c0.3-0.2,0.7-0.4,1-0.6c-7.9-8-17.7-13.5-28.7-16.1
					C292.2,122.7,291.8,123.9,292.6,124.1L292.6,124.1z"/>
			</g>
		</g>
		<g>
			<g>
				<path class="st12" d="M236,122.3c-13.9,3-23.7,16.4-22.4,30.6c0.4-0.1,0.7-0.3,1.1-0.4c-14.3-14.4,3.6-31.9,14.7-40.7
					c0.4-0.3,0.1-1.1-0.4-1.1c-18,1.4-34.2,11.3-43.7,26.7c0.4,0,0.8,0.1,1.1,0.1c-7.1-21.7,13.9-37.2,29.7-47.3
					c0.7-0.4,0-1.5-0.6-1.1c-16.3,10.4-37.5,26.4-30.2,48.7c0.2,0.5,0.9,0.6,1.1,0.1c9.2-15,25-24.7,42.6-26.1
					c-0.1-0.4-0.3-0.7-0.4-1.1c-7.3,5.8-15.3,12.1-18.5,21.1c-2.7,7.3-1.8,15.8,3.8,21.4c0.4,0.4,1.1,0.1,1.1-0.4
					c-1.3-13.6,8.1-26.4,21.4-29.4C237.1,123.4,236.8,122.2,236,122.3L236,122.3z"/>
			</g>
		</g>
	</g>
	<g>
		<path class="st37" d="M174.9,289.2l-10.2-51.6l-0.4-2l-5,3l-0.1,0.1c0,0,0.5,3.7,1.4,9.6c0.3,2.4,0.7,5.1,1.2,8
			c0.4,3,0.9,6.2,1.4,9.5c3.1,21.5,7.1,48.3,7.8,50.7c-0.9,11.5,7.5,24,6.9,22.1c1.7,5.9,13.8,16.1,16.2,17.4
			c0.8,1.6,12,8.4,23.9,14.6c0,0,0.1,0.1,0.1,0.1c5.1,2.6,10.2,5.1,14.7,7.1c1.3-4.4,1.8-10.5-0.4-18c-3.5-2.8-6.6-7.4-8.1-12.5
			c-0.5-1.8-0.8-3.7-0.9-5.5c-1.1-1.6-2.2-2.9-3.2-4.1c-5.2-1.1-11.1-5.5-16.9-11.3C188.6,312,174.9,289.2,174.9,289.2z"/>
	</g>
	<path class="st17" d="M173.6,244.1l-14.2-8.2c-0.4-0.2-0.8,0.1-0.7,0.5l0.3,3.6c0,0.3,0.2,0.6,0.4,0.8l14.3,10.8L173.6,244.1z"/>
</g>
</svg>
